<?xml version="1.0" encoding="UTF-8" standalone="no"?>
<!-- Created with Inkscape (http://www.inkscape.org/) -->

<svg
   width="210mm"
   height="297mm"
   viewBox="0 0 210 297"
   version="1.1"
   id="svg1"
   inkscape:version="1.4 (86a8ad7, 2024-10-11)"
   sodipodi:docname="yamata.svg"
   xmlns:inkscape="http://www.inkscape.org/namespaces/inkscape"
   xmlns:sodipodi="http://sodipodi.sourceforge.net/DTD/sodipodi-0.dtd"
   xmlns="http://www.w3.org/2000/svg"
   xmlns:svg="http://www.w3.org/2000/svg">
  <sodipodi:namedview
     id="namedview1"
     pagecolor="#ffffff"
     bordercolor="#000000"
     borderopacity="0.25"
     inkscape:showpageshadow="2"
     inkscape:pageopacity="0.0"
     inkscape:pagecheckerboard="0"
     inkscape:deskcolor="#d1d1d1"
     inkscape:document-units="mm"
     inkscape:zoom="1.1905273"
     inkscape:cx="379.66371"
     inkscape:cy="305.3269"
     inkscape:window-width="1920"
     inkscape:window-height="1013"
     inkscape:window-x="-9"
     inkscape:window-y="29"
     inkscape:window-maximized="1"
     inkscape:current-layer="g69" />
  <defs
     id="defs1" />
  <g
     inkscape:label="Layer 1"
     inkscape:groupmode="layer"
     id="layer1">
    <g
       id="g72"
       transform="translate(12.509484,-46.487565)">
      <path
         style="fill:#ff0000;fill-opacity:1;stroke-width:0.583143"
         id="path63"
         d="m 62.435384,97.492465 c -0.0248,0.41848 -0.0721,0.83622 -0.0743,1.25542 -0.0353,6.789215 0.2305,5.766815 0.0857,14.348135 -0.066,3.90938 -0.26024,7.81557 -0.40006,11.72303 -0.72988,20.39709 -0.225,4.34169 -0.81058,24.17187 -0.16673,8.28821 -0.36815,16.57288 -0.75463,24.85357 0,0 0.25438,0.13092 0.25438,0.13092 v 0 c 0.25151,-8.30042 0.4798,-16.60151 0.65711,-24.90393 0.29475,-9.98283 0.38552,-14.0997 0.81049,-24.17168 0.16382,-3.88262 0.29264,-7.76771 0.55125,-11.64515 0.68875,-10.32686 0.65345,-6.05937 1.31535,-13.627185 0.0374,-0.42758 0.0192,-0.85822 0.0288,-1.28732 z" />
      <path
         style="fill:#ff0000;fill-opacity:1;stroke-width:0.583143"
         id="path64"
         d="m 67.685894,102.09902 c 0.46225,-0.13334 0.91859,-0.28932 1.38675,-0.40016 10.14095,-2.400805 20.4686,-3.967285 30.78191,-5.394225 5.348836,-0.57414 7.401666,-0.90878 12.549616,-1.07229 1.35866,-0.0432 2.7219,-0.0752 4.078,0.0176 0.90387,0.0626 1.81035,0.19748 2.68069,0.44916 0.56368,0.16309 1.51693,0.19858 1.57695,0.78231 0.0531,0.51662 -1.01858,-0.20343 -1.52789,-0.30504 0.1285,0.57164 0.35952,1.12958 0.38581,1.7149 0.13202,2.938645 -0.50861,7.635695 -0.83679,10.243365 -0.98446,7.82242 -2.21637,15.6133 -3.43307,23.40186 -0.69193,5.07195 -1.50208,10.74359 -2.05998,15.84694 -0.24612,2.25122 -0.34455,4.51822 -0.63394,6.76428 -0.21819,1.69397 -0.59177,3.36428 -0.88766,5.04642 0,0 0.1556,0.0829 0.1556,0.0829 v 0 c 0.29591,-1.68221 0.53163,-3.3761 0.88776,-5.04658 0.44988,-2.11036 1.06521,-4.18283 1.52896,-6.29017 1.1197,-5.08806 1.99941,-10.26694 2.92302,-15.39111 1.10341,-7.15506 1.3193,-8.63909 2.47691,-15.80621 0.74244,-4.59672 1.55777,-9.05249 2.08463,-13.67401 0.1501,-1.31632 0.30517,-2.63844 0.29922,-3.963295 -0.002,-0.61681 -0.21665,-1.21443 -0.32516,-1.82163 -1.12032,-0.88086 -2.76904,-2.66793 -4.48927,-2.9807 -1.6212,-0.29479 -4.71506,-0.0395 -6.07863,0.0747 -4.19661,0.35126 -7.85151,0.87766 -12.071126,1.42018 -7.34932,0.99857 -14.67624,2.09288 -21.99881,3.27257 -1.17197,0.18889 -7.71802,1.247015 -9.52601,1.629435 -0.47344,0.10006 -0.92753,0.27636 -1.3913,0.41453 z" />
      <path
         style="fill:#ff0000;fill-opacity:1;stroke-width:0.583143"
         id="path65"
         d="m 62.698864,169.96925 c 7.51054,-2.34656 15.06052,-4.61243 22.70988,-6.46984 2.51095,-0.60971 5.0416,-1.13517 7.56241,-1.70277 6.26736,-1.27039 12.507556,-2.65819 18.778486,-3.91008 0,0 -0.15781,-0.1102 -0.15781,-0.1102 v 0 c -6.52789,1.11787 -13.094706,1.98708 -19.578586,3.35584 -7.0648,1.5391 -14.10302,3.09815 -21.05916,5.08312 -2.30572,0.65794 -5.4051,1.60304 -7.75282,2.47684 -0.50104,0.18646 -0.98213,0.42273 -1.47319,0.6341 z" />
      <path
         style="fill:#ff0000;fill-opacity:1;stroke-width:0.583143"
         id="path66"
         d="m 73.801304,114.46985 c 0.74162,7.81247 0.80003,15.65839 0.9561,23.49689 0.12248,6.15099 0.16819,7.33692 0.33643,13.21615 0,0 0.15732,0.0796 0.15732,0.0796 v 0 c -0.19911,-6.95532 -0.4288,-13.91432 -0.41261,-20.87349 0.0183,-7.8929 0.0957,-5.63803 0.35577,-12.65986 0.0313,-0.84495 0.0345,-1.69069 0.0518,-2.53606 z" />
      <path
         style="fill:#ff0000;fill-opacity:1;stroke-width:0.583143"
         id="path67"
         d="m 76.467934,115.43071 c 4.67301,-1.1095 9.21604,-2.7173 13.93413,-3.65464 1.57037,-0.312 3.16139,-0.50889 4.74209,-0.76334 2.83878,-0.32245 5.068766,-0.77215 7.898356,-0.41856 0.83808,0.10469 1.73376,0.21467 2.44255,0.67392 0.25604,0.16596 -0.78414,0.065 -0.83942,0.36498 -0.14965,0.81264 0.31526,1.63196 0.31949,2.45824 0.007,1.18384 -0.1924,2.35985 -0.28865,3.53979 -0.22669,1.48852 -0.45339,2.97702 -0.68007,4.46554 -0.2841,1.95264 -0.55757,3.90686 -0.85227,5.85794 -0.30241,2.00203 -0.67319,3.99399 -0.93904,6.0012 -1.04197,7.86731 -0.29064,3.86673 -1.1115,11.32943 -0.15649,1.42313 -0.39485,2.8361 -0.59226,4.25413 0,0 0.2193,0.11593 0.2193,0.11593 v 0 c 0.22833,-1.40181 0.42663,-2.80887 0.685,-4.20544 2.10761,-11.39236 -0.0837,1.60536 2.16584,-10.77017 0.36097,-1.98585 0.63111,-3.98742 0.9873,-5.97413 0.45226,-2.5224 1.44475,-7.3816 1.99198,-10.09235 0.0886,-0.59828 0.99401,-4.99974 0.3398,-6.01597 -2.98676,-4.63948 -8.466896,-2.98916 -12.849516,-2.35749 -1.54124,0.28489 -3.08808,0.54095 -4.62371,0.85462 -4.82445,0.98544 -9.57294,2.31104 -14.39222,3.31525 z" />
      <path
         style="fill:#ff0000;fill-opacity:1;stroke-width:0.583143"
         id="path68"
         d="m 78.700394,145.69921 c 6.59428,-0.81801 13.05408,-2.46335 19.49668,-4.04642 0,0 -0.78588,-0.54448 -0.78588,-0.54448 v 0 c -5.1332,1.08197 -5.02983,1.09312 -10.18459,2.04812 -0.19543,0.0361 -6.83118,1.20718 -7.62414,1.37607 -0.6344,0.13511 -1.25445,0.33056 -1.88167,0.49581 z" />
      <g
         id="g62"
         style="fill:#000000"
         transform="matrix(2.2040069,0,0,2.2040069,-138.45822,-249.81934)">
        <g
           id="g69"
           transform="translate(3.3241051,-42.431224)">
          <path
             style="fill:#000000;stroke-width:0.264583"
             id="path2"
             d="m 73.895785,207.44161 c -0.0054,0.0934 -0.03218,0.18812 -0.01614,0.28034 0.09246,0.53168 0.439658,1.37335 0.612032,1.80017 0.203178,0.5031 0.41766,1.00158 0.63224,1.49992 0.843762,1.95954 0.621109,1.44384 1.579271,3.39335 1.374715,2.18594 0.648589,1.14828 2.167536,3.12056 0,0 0.752478,0.33787 0.752478,0.33787 v 0 c -0.322599,-1.53352 -0.10032,-0.70833 -0.723453,-2.4596 -0.720463,-1.56268 -0.825257,-1.73402 -1.455148,-3.3188 -0.462113,-1.16266 -0.800862,-2.41853 -1.525413,-3.45843 -0.125468,-0.18008 -0.289718,-0.32976 -0.43458,-0.49464 z" />
          <path
             style="fill:#000000;stroke-width:0.264583"
             id="path3"
             d="m 85.025379,207.0325 c -0.228065,0.1876 -0.489452,0.3408 -0.684194,0.5628 -1.481473,1.68878 -1.777899,2.47718 -2.949297,4.58966 -0.619688,1.11754 -1.235212,2.23743 -1.841219,3.36245 -2.1409,3.97444 -1.57902,2.91972 -3.477787,6.8996 -0.488286,1.227 -1.62233,3.96209 -2.028409,5.363 -0.143942,0.49657 -0.194969,1.01547 -0.292452,1.52321 0,0 0.388771,0.22047 0.388771,0.22047 v 0 c 0.32671,-0.37849 0.700047,-0.72129 0.980133,-1.13548 0.500927,-0.74077 2.477063,-4.42192 2.76053,-4.94221 1.131091,-2.19587 2.377961,-4.67287 3.60172,-6.81324 0.633447,-1.10791 1.305626,-2.1934 1.979086,-3.27746 1.158946,-1.86554 1.958035,-2.77225 2.722628,-4.72499 0.109234,-0.27897 0.10409,-0.59009 0.156136,-0.88513 z" />
          <path
             style="fill:#000000;stroke-width:0.264583"
             id="path4"
             d="m 82.103763,224.65911 c 0.154771,-0.17677 0.332944,-0.33553 0.464317,-0.53032 0.274688,-0.4073 0.501335,-0.84502 0.749268,-1.26914 0.374936,-0.64137 0.72499,-1.29768 1.119323,-1.92731 1.176655,-1.87878 2.513026,-3.64173 3.875698,-5.38653 0.293807,-0.28802 0.519983,-0.66749 0.881423,-0.86406 0.158448,-0.0862 0.70222,0.15655 0.532691,0.095 -0.736786,-0.26759 -1.486342,-0.92985 -2.240246,-0.71516 -0.425034,0.12104 0.07132,0.88101 0.11284,1.32099 0.190701,2.02059 0.102576,1.28914 0.466524,3.29982 0.438954,1.75186 0.211698,1.46918 0.298161,2.38332 l 0.696907,0.35431 v 0 c -0.02704,-0.59091 0.03186,-1.40203 0.24936,-2.10261 0.352075,-1.48303 0.336272,-1.23828 0.527272,-2.79319 0.05152,-0.4194 0.370094,-0.91809 0.123997,-1.26158 -0.346983,-0.48429 -1.996141,-3.0082 -2.798345,-1.78818 -0.221834,0.33738 -0.390101,0.70708 -0.585152,1.06061 -0.984629,1.96856 -1.896761,3.99006 -3.036433,5.87637 -2.0633,3.41505 -0.438099,0.49018 -2.096478,3.0579 -0.12658,0.19598 -0.212712,0.41531 -0.319069,0.62297 z"
             sodipodi:nodetypes="cssscccsccccscssscsscc" />
          <path
             style="fill:#000000;stroke-width:0.264583"
             id="path5"
             d="m 83.992372,220.12288 c 1.047501,-0.26553 0.515355,-0.064 1.577485,-0.65237 0,0 -0.554878,-0.38165 -0.554878,-0.38165 v 0 c -1.600322,0.13232 -0.898433,0.0438 -2.11015,0.22719 z" />
          <path
             style="fill:#000000;stroke-width:0.264583"
             id="path6"
             d="m 91.729593,224.00428 c 0.08234,-0.12923 0.182264,-0.24881 0.247026,-0.38768 0.295894,-0.63452 0.435824,-1.34049 0.616752,-2.00795 0.145698,-0.53749 0.286355,-1.07642 0.44156,-1.61124 0.530093,-1.82667 0.478888,-1.5938 1.126379,-3.35916 0.607584,-1.6947 1.127979,-3.42021 1.780987,-5.09855 0.02872,-0.0629 0.0554,-0.12682 0.08615,-0.18879 0.03355,-0.0676 0.0872,-0.15686 0.104942,-0.15091 0.01892,0.006 0.01209,0.0686 -0.0057,0.0596 -2.422168,-1.22941 -2.362756,-2.16907 -2.377239,-1.11085 -0.03671,1.65001 0.348059,3.28694 0.702408,4.88957 0.389289,1.4952 0.599731,1.97797 3.088576,2.00951 0.332915,0.004 0.168479,-0.64425 0.246788,-0.96786 0.529701,-2.18897 0.112654,-0.76992 0.859816,-3.02887 0.115007,-0.25991 0.692791,-1.80452 1.129316,-2.07411 0.127233,-0.0786 0.556096,0.21859 0.412926,0.17538 -0.761951,-0.22993 -1.502163,-0.94068 -2.27133,-0.73619 -0.421497,0.11207 0.113445,0.86512 0.152519,1.29951 0.0542,0.60247 0.08482,1.20683 0.127222,1.81025 0.06714,0.71879 0.142701,1.43684 0.201414,2.15636 0.05598,0.68596 0.06012,1.37651 0.142637,2.05978 0.07762,0.64278 0.224425,1.27531 0.337114,1.91288 0.09131,0.51663 0.170159,1.03566 0.274894,1.54974 0.347469,1.46032 0.205623,0.79237 0.441637,2.00035 0,0 0.461483,0.22826 0.461483,0.22826 v 0 c -0.009,-0.24674 -0.0346,-0.49342 -0.0274,-0.74023 0.01,-0.33764 0.0564,-0.67324 0.0785,-1.0103 0.0299,-0.45693 0.0458,-0.91473 0.0773,-1.37155 0.0385,-0.55828 0.11645,-1.1142 0.13251,-1.67357 0.0191,-0.66611 -0.0345,-1.33262 -0.0271,-1.99895 0.007,-0.67258 0.0479,-1.34439 0.0718,-2.01658 0.0128,-0.57782 0.026,-1.15562 0.0385,-1.73344 0.009,-0.42098 0.27958,-0.92671 0.0261,-1.26294 -0.25549,-0.33892 -2.143142,-3.19905 -2.779372,-1.87083 -0.140822,0.29399 -0.243343,0.60484 -0.362913,0.90809 -0.176136,0.44671 -0.349467,0.89452 -0.524201,1.34177 -0.462036,1.14349 -0.680005,1.74498 -1.209532,2.83096 -0.125828,0.25806 -0.589613,0.53047 -0.41225,0.75623 0.56379,0.71763 1.479267,1.07021 2.241455,1.57213 0.313584,0.2065 -1.627182,-1.33323 -0.552921,-0.98137 -0.205885,-0.88665 -0.270634,-1.08537 -0.405169,-2.01354 -0.134525,-0.92812 -0.15928,-1.86527 -0.278892,-2.79467 0.02842,-1.06366 0.04981,-0.21424 -2.366185,-1.55171 -0.02312,-0.0128 -0.01963,0.0499 -0.02201,0.0762 -0.0063,0.0693 0.0427,0.13933 -0.0031,0.20881 -0.0094,0.0729 -0.02273,0.14521 -0.03408,0.21781 -0.372388,1.8086 -0.851273,3.59288 -1.235893,5.39885 -0.332031,1.65764 -0.345167,1.89968 -0.812876,3.5274 -0.152273,0.52994 -0.324768,1.05397 -0.499486,1.57694 -0.218564,0.65422 -0.492424,1.29002 -0.689544,1.95101 -0.04511,0.15125 -0.0674,0.30838 -0.1011,0.46257 z" />
          <path
             style="fill:#000000;stroke-width:0.264583"
             id="path7"
             d="m 103.67836,222.09527 c 0.0879,-0.13684 0.19523,-0.26302 0.26383,-0.4105 0.2616,-0.56245 0.41248,-1.27143 0.55527,-1.85555 0.11815,-0.48333 0.22043,-0.97052 0.34336,-1.45266 0.44146,-1.7315 0.39735,-1.49487 0.96854,-3.16883 0.26341,-0.52877 0.75325,-1.6654 1.23398,-2.13443 0.55179,-0.53837 4.20076,-0.71128 -1.86819,-1.35257 -0.32166,-0.034 0.31959,0.56504 0.43668,0.86656 0.15309,0.39421 0.24731,0.80881 0.37096,1.21322 0.43959,2.36372 1.52408,4.51499 2.51691,6.68031 0,0 0.14679,0.0712 0.14679,0.0712 v 0 c 0.14145,-0.88231 0.0619,-0.39343 0.24032,-1.46637 0.0608,-0.37824 0.15178,-0.75325 0.17743,-1.13547 0.0885,-1.3194 -0.0309,-1.50239 -0.2707,-2.80999 -0.0953,-0.40359 -0.18175,-0.80939 -0.28597,-1.21077 -0.0845,-0.32534 -0.0148,-0.7622 -0.27997,-0.96872 -0.9484,-0.7386 -2.03103,-1.33544 -3.17046,-1.71843 -0.19601,-0.0659 -0.17517,0.37574 -0.23933,0.57231 -0.29409,0.90094 -0.40084,1.57207 -0.59921,2.52473 -0.43496,1.76723 -0.34376,1.48437 -0.86032,3.23181 -0.24571,0.83117 -0.50619,1.6579 -0.75845,2.48711 -0.076,0.24969 -0.1621,0.49648 -0.22868,0.74884 -0.0423,0.16049 -0.0651,0.32552 -0.0977,0.48828 z" />
          <path
             style="fill:#000000;stroke-width:0.264583"
             id="path8"
             d="m 104.14113,218.78609 c 0.6407,-0.25809 1.20919,-0.46926 1.82464,-0.80781 0.33673,-0.18522 0.64958,-0.41088 0.97436,-0.61633 0,0 -0.2131,-0.1442 -0.2131,-0.1442 v 0 c -0.50675,0.0832 -1.01874,0.139 -1.52024,0.24945 -0.83344,0.18354 -1.2905,0.37717 -2.04463,0.65853 z" />
          <path
             style="fill:#000000;stroke-width:0.264583"
             id="path9"
             d="m 112.41717,209.12454 c -0.0964,0.12581 -0.23942,0.22695 -0.2892,0.37742 -0.15253,0.46103 -0.195,1.91047 -0.21318,2.25533 -0.0574,1.08852 -0.14809,2.23661 -0.0325,3.32568 0.061,0.57501 0.21103,1.13706 0.31655,1.70559 0.13175,0.47367 0.2635,0.94734 0.39525,1.42101 0,0 0.66135,0.33887 0.66135,0.33887 v 0 c 0.15002,-0.32933 0.30005,-0.65866 0.45007,-0.98799 0.12794,-0.44688 0.29401,-0.88456 0.38381,-1.34063 0.16249,-0.8253 0.24674,-2.33609 0.31314,-3.17303 0.0421,-0.5312 0.19263,-1.73664 0.0919,-2.33304 -0.0412,-0.2439 -0.17827,-0.46146 -0.26741,-0.69219 z" />
          <path
             style="fill:#000000;stroke-width:0.264583"
             id="path10"
             d="m 106.24765,211.46958 c 1.86806,-0.16673 1.02673,-0.0452 3.49391,-0.58116 0.95957,-0.20844 1.91399,-0.44018 2.8737,-0.64795 1.0085,-0.21834 2.02743,-0.38929 3.03075,-0.63037 6.35612,-1.52723 -1.03287,0.003 4.81691,-1.16131 0,0 -0.4849,-0.3428 -0.4849,-0.3428 v 0 c -0.88593,0.063 -1.77146,0.13173 -2.65777,0.18906 -1.09163,0.0706 -2.18834,0.0775 -3.27595,0.19479 -1.07915,0.11636 -2.14632,0.32581 -3.21679,0.50533 -2.09429,0.35122 -4.20774,0.70397 -6.25753,1.26894 z" />
          <path
             style="fill:#000000;stroke-width:0.264583"
             id="path12"
             d="m 116.53568,220.1873 c 0.076,-0.12921 0.16722,-0.25063 0.22811,-0.38764 0.18869,-0.42456 0.47015,-1.39085 0.60171,-1.75956 0.16392,-0.45938 0.33403,-0.91684 0.52059,-1.36751 0.55208,-1.33363 0.65953,-1.47201 1.31542,-2.72299 0.59831,-0.34556 0.89103,-1.05526 1.45075,-1.44646 0.82659,-0.57773 5.78152,0.78233 -2.62112,-1.63519 -0.26313,-0.0757 0.29019,0.46976 0.37893,0.72878 0.1325,0.38674 0.18656,0.79604 0.27983,1.19405 0.22318,1.28343 0.35926,2.57939 0.51908,3.87159 0.0245,0.19834 0.1654,1.5456 0.28194,1.80422 0.13597,0.30176 0.38035,0.5418 0.57053,0.8127 0.10616,0.56385 0.57596,0.75708 0.97787,1.08864 0,0 0.72053,0.35529 0.72053,0.35529 v 0 c 0.461,0.009 0.7163,0.34374 0.66457,-0.29905 0.11027,-0.1221 0.30147,-0.20441 0.33081,-0.36629 0.0468,-0.25836 -0.0799,-0.51904 -0.12343,-0.77799 -0.0572,-0.34075 -0.12257,-0.6801 -0.17868,-1.02103 -0.21226,-1.28973 -0.36323,-2.58672 -0.51242,-3.885 -0.0519,-0.39694 -0.0964,-0.79491 -0.15567,-1.19082 -0.0448,-0.29918 0.087,-0.71423 -0.15629,-0.89397 -1.13552,-0.83882 -2.42785,-1.46727 -3.74118,-1.98512 -0.15906,-0.0627 -0.2678,0.22301 -0.35537,0.36986 -0.14632,0.24537 -0.27053,0.51046 -0.33549,0.78866 -0.0985,0.42176 -0.10003,0.86041 -0.15004,1.2906 -0.35887,1.49868 -0.70064,3.00514 -1.14474,4.4817 -0.13605,0.45232 -0.4394,1.26718 -0.57149,1.76872 -0.0388,0.14737 -0.0566,0.29949 -0.0849,0.44924 z" />
          <path
             style="fill:#000000;stroke-width:0.264583"
             id="path13"
             d="m 117.63157,217.26288 c 0.53534,-0.0489 1.03718,-0.2153 1.54192,-0.38792 0,0 -0.5928,-0.41092 -0.5928,-0.41092 v 0 c -0.55191,0.0731 -1.11936,0.11808 -1.64513,0.31605 z" />
          <path
             style="fill:#000000;stroke-width:0.264583"
             id="path14"
             d="m 84.678365,220.15241 c 1.102654,0.0391 2.114862,-0.40587 3.125145,-0.78292 0,0 -1.059035,-0.73516 -1.059035,-0.73516 v 0 c -1.137711,0.11699 -2.309879,0.15225 -3.385137,0.58188 z" />
        </g>
      </g>
    </g>
  </g>
</svg>
